<?xml version="1.0" encoding="UTF-8"?><svg id="Layer_2" xmlns="http://www.w3.org/2000/svg" viewBox="0 0 1671.82 404.22"><defs><style>.cls-1{font-family:SFProDisplay-Medium, 'SF Pro Display';font-size:52.22px;}.cls-2{fill:#893783;}.cls-3{letter-spacing:-.03em;}.cls-4{letter-spacing:0em;}.cls-5{fill:#fdfdfd;}.cls-6{fill:#e9a425;}</style></defs><g id="Layer_1-2"><g><g><path class="cls-6" d="M1434.32,238.63c1.14,.87,2.42,1.36,3.82,1.63,.8,.15,1.65,.37,2.32,.81,2.28,1.51,4.84,1.82,7.46,1.98,.37,.02,.73,.08,1.1,.14,.08,.01,.15,.1,.33,.23-1.68,.44-3.29,.75-4.82,1.3-1.87,.67-3.74,1.4-5.46,2.37-1.75,.98-1.75,2.58,.02,3.56,1.82,1,3.77,1.89,5.77,2.41,3.65,.95,7.36,1.71,11.08,2.33,3.5,.59,7.03,.97,10.56,1.32,4.43,.44,8.87,.78,13.32,1.11,2.17,.16,4.35,.28,6.53,.3,12.26,.14,24.53,.4,36.79,.29,7.26-.06,14.53-.63,21.78-1.17,4.76-.36,9.51-.94,14.23-1.66,4.39-.67,8.76-1.53,13.07-2.55,1.94-.46,3.83-1.37,5.59-2.34,1.88-1.03,1.89-2.64,.03-3.69-1.69-.96-3.54-1.68-5.39-2.29-1.77-.58-3.63-.89-5.44-1.33-.15-.04-.27-.16-.44-.27,.84-1.29,1.67-2.51,2.44-3.78,.26-.43,.47-.99,.45-1.48-.1-2.65,.67-5.16,1.07-7.73,.29-1.88,.52-3.78,.74-5.67,0,0,0,0,0,0,1.37-4.15,.41-13.89,.09-16.68,0,0,0,0,0,0-.05-.48-.09-.76-.09-.76h0c-.25-2-.57-3.99-1-5.98-1.62-7.51-4.53-14.49-8.22-21.18-1.17-2.13-2.08-4.42-3.42-6.43-1.46-2.21-2.63-4.52-3.65-6.95-1.13-2.67-3.17-4.62-5.52-6.27-.57-.4-1.1-.86-1.6-1.34-1.06-1.04-2-2.14-1.94-3.78,.01-.45-.23-.9-.44-1.62-1.37,.37-2.75,.67-4.07,1.14-1.13,.4-1.06,.48-1.54-.67-.58-1.39-.63-2.78-.34-4.23,.12-.62,.22-1.26,.25-1.89,.35-6.12,.76-12.23,1-18.35,.16-4.21-1.48-7.8-4.35-10.86-.13-.14-.24-.31-.26-.63,.33,.17,.66,.34,1.16,.6-1.67-3.51-4.08-5.53-8.25-5.06,.34-.84,.59-1.46,.84-2.09-.03-.06-.06-.12-.09-.17-.57,.43-1.14,.86-1.71,1.29-.95-.83-1.9-1.75-2.93-2.55-1.21-.92-2.66-1.26-4.15-1.21-2.96,.1-5.78-.43-8.5-1.6-.11-.05-.25-.03-.67-.06,.69,.77,1.21,1.37,1.74,1.96-2.36-.76-4.25,.58-6.28,1.23-.54,.17-1.09,.36-1.65,.42-1.71,.17-2.52-.37-3.32-2.08-1.56,.36-2.61,1.7-3.09,3.8-.16-.38-.32-.76-.51-1.21-1.59,.45-2.41,1.64-2.86,3.18-.38,1.31-.72,2.64-1.15,3.93-.71,2.12-2.32,3.08-4.46,3.28-.5,.05-1,0-1.61,0,.27,1.47,.86,2.69,2.03,3.54,.42,.31,.5,.5,.29,.95-1.37,2.94-1.37,5.85,.17,8.75,.45,.84,.75,1.75,1.13,2.65,.93-.21,1.12-.41,2.29-2.47,.06,.09,.15,.16,.15,.23-.29,5.04,1.75,9.2,4.9,12.94,.02,.03,.05,.05,.07,.07,1.72,1.29,1.85,3.06,1.62,5.01-.09,.79,.1,1.61,.15,2.41,.02,.4,0,.79,0,1.19-.11,.05-.2,.11-.29,.13-.42,.08-1.12-.14-1.01,.58,.05,.36,.55,.77,.94,.93,.44,.18,.99,.14,1.48,.13,1.14-.03,1.57,.27,1.72,1.4,.08,.56,.07,1.13,.1,1.8,.57,.07,1.12,.13,1.7,.2,.31,1.07,.76,1.93,2.11,1.85,.21-.01,.5,.37,.66,.62,.46,.74,.89,1.49,1.29,2.26,.52,.99,1.4,1.34,2.35,.98,1.76-.67,3.51-1.43,5.16-2.35,1.33-.73,2.52-1.73,3.75-2.63,.46-.34,.84-.42,1.15,.13,.3,.51,.65,1.02,.8,1.58,.08,.29-.19,.69-.34,1.02-.24,.5-.74,.99-.74,1.48-.01,1.61-.32,3.01-1.31,4.37-.62,.85-.77,2.1-.93,3.2-.37,2.54-.39,5.16-.97,7.64-.66,2.81-1.71,5.54-2.77,8.23-.28,.71-1.21,1.16-1.87,1.71-.25,.21-.57,.34-.85,.51-1.51-.97-2.5,.54-3.86,.73,.12,.92,.22,1.77,.36,2.85-2.17-.16-4.19-.31-6.22-.46,0-.14,0-.29,0-.43h4.87q-.3-2.8,2.16-3.9c.45-.2,.91-.43,1.39-.55,.5-.13,1.02-.14,1.56,.03,.4-.29,.79-.57,1.27-.92-3.53-3.55-7.01-6.99-11.31-9.46-3.75-2.15-7.47-2.02-11.09,.25-3.14,1.97-5.55,4.71-7.97,7.57,2.67,1.32,5.24,2.6,7.82,3.87-.04,.13-.08,.26-.11,.39-.83-.2-1.74-.25-2.47-.64-3.83-2.04-7.84-3.69-11.95-5.06-1.66-.56-3.46-.72-5.21-.98-.98-.15-1.97-.19-2.95-.3l-1.66-.4s0,0,0,0l-5.88-5.05c-.09-.1-.18-.2-.27-.31,0,.02-.02,.04-.02,.06l-6.44-5.53c-3.72-3.21-7.45-6.44-11.21-9.68-.47,.71-.69,1.22,.06,1.84,1.98,1.66,3.91,3.39,5.84,5.11,.16,.14,.26,.36,.39,.54l-.06,.07c-1.18-.9-2.37-1.79-3.53-2.71-1.4-1.12-2.76-2.27-4.35-3.57-.2,1.27-.31,2.35-.54,3.41-.33,1.55-.74,3.08-1.13,4.61-.17,.69-.19,1.27,.48,1.76,5.87,4.25,11.72,8.53,17.59,12.77,.75,.54,1.1,1.12,1.25,2.08,.42,2.74,1.56,5.23,3.04,7.56,.17,.27,.58,.57,.87,.56,1.5-.02,3-.04,4.48-.24,1.49-.19,2.94-.75,4.43-.84,1.11-.07,2.34,.16,3.37,.6,2.08,.89,4.05,2.02,6.06,3.06,.14,.07,.23,.23,.51,.54-3.72-1.04-6.86-3.73-11.16-2.58,1.41,1.18,2.63,2.21,3.89,3.27-1.69,3.13-3.34,6.2-5,9.26-2.51,4.62-5.02,9.23-7.56,13.83-1.2,2.17-2.64,4.16-4.92,5.36-.35,.18-.75,.28-1.12,.43-.38,.15-.75,.26-1.08,.48-1.4,.14-4.71,.53-6.65,.76-.5,.03-1,.07-1.49,.17-2.32,.49-4.65,.95-6.92,1.62-1.8,.53-3.43,.18-5.1-.39-1.09-.37-2.18-.76-3.25-1.13-1.04,2.13-.45,4.18,1.51,5.66Zm35.58,1.99c.23-2.64,1.13-4.78,2.74-6.61,4.2-4.78,8.91-8.99,13.88-12.95,3.8-3.03,8.02-5.63,10.76-10.07,2.06,2.94,4.02,5.74,5.95,8.55,.13,.2,.12,.56,.06,.81-.71,2.64-1.44,5.27-2.17,7.91-.18,.64-.1,1.04,.57,1.46,2.66,1.69,5.29,3.44,7.85,5.28,1.59,1.15,3.04,2.5,4.55,3.75-.04,.1-.08,.21-.12,.31-14.67-.1-29.33,.26-44.07,1.54Z"/><path class="cls-6" d="M1468.23,183.95c-2.65-2.32-5.33-4.59-7.97-6.91-3.01-2.64-5.98-5.32-9.03-8.03,.38-.32,.66-.62,.98-.83,1.32-.84,2.23-.85,3.16-.04,4.91,4.27,9.81,8.55,14.73,12.82,1.81,1.56,3.65,3.08,5.63,4.75-1.86-.28-3.47-.63-5.09-.74-.98-.06-1.7-.4-2.4-1.02Z"/></g><ellipse class="cls-6" cx="1506.87" cy="248.74" rx="164.94" ry="9.68"/><path class="cls-2" d="M186.23,136.81c10.68,9.44,18.01,21,21.62,34.43,11.41,42.4-16.56,62.15-50.26,61.28-29.76-.77-52.97-16.46-73.7-36.27-19.66-18.78-33.15-41.29-41.08-67.39C31.39,91.27,27.56,52.81,29.07,13.41c1.51,5.77,2.94,11.57,4.56,17.32,1.66,5.89,3.31,11.79,5.31,17.57,3.19,9.24,6.79,18.35,9.95,27.6,1.94,5.65,4.58,5.71,9.45,2.89,27.77-16.14,56.06-31.4,83.51-48.06,21.15-12.84,41.05-12.58,62.1-.1,37.09,22,74.41,43.63,111.99,64.78,20.57,11.58,29.86,28.38,29.65,51.79-.41,44.39-.9,88.8,.27,133.16,.81,30.75-17.66,41.74-41.14,45.37-18.64,2.88-36.67-1.48-53.55-8.5-28.5-11.86-53.9-28.82-75.07-51.6-2.49-2.68-4.55-5.76-6.8-8.65-3.48-4.46-3.05-6.46,3.24-7.19,11.57-1.34,23.07-3.66,32.69-10.91,18.05-13.59,24.42-44.73,12.61-64.01-7.06-11.52-10.53-25.32-21.59-34.35-2.85-2.33-5.25-5.33-10.01-3.71m-52.49-5.36c-16.07-.11-29.65,13.31-30.06,29.71-.41,16.64,13.86,31.51,30.4,31.67,16.53,.16,31.22-14.54,31.04-31.06-.19-17.17-13.66-30.19-31.38-30.32"/><path class="cls-6" d="M365.15,344.48c-6.36,6.01-12.76,6.92-18.7,8.26-26.61,6.02-53.71,8.87-80.86,10.83-8.68,.62-15.94,3.54-23.15,7.68-15.65,8.99-31.3,18-47.07,26.78-14.83,8.25-30.15,8.18-44.83,.2-41.63-22.63-82.36-46.85-123.2-70.87C7.27,315.56-.1,298.22,0,276.15c.19-44.11,.11-88.21,.35-132.32,.09-15.2,3.94-29.06,16.27-39.39,4.86-4.07,7.71-4.44,8.96,2.96,7.34,43.45,24.73,82.61,52.76,116.51,13,15.72,29.71,27.98,46.1,40.14,27.87,20.68,57.72,38.25,89.93,51.13,44.35,17.72,90.31,28.75,138.45,28.75,3.5,0,7.01,.3,12.32,.54"/><path class="cls-6" d="M1534.94,58.2c.16-.12,.32-.24,.48-.36-.12,.16-.24,.33-.36,.5h-.01s-.02-.03-.02-.03l-.06-.08s-.03-.03-.03-.03"/><path class="cls-6" d="M1622.99,21.68c.26,.08,.57,.1,.77,.25,.12,.09,.07,.41,.1,.62-.26-.32-.53-.64-.79-.96,0,0-.08,.08-.08,.08"/><path class="cls-5" d="M1513.96,240.06c-12.54,.99-23.57,.92-34.61-.25,0-1.25-.12-1.64,.02-1.87,4.83-8.22,10.29-19.31,18.9-19.08,7.03,.18,11.08,11.9,15.7,21.21"/><path class="cls-5" d="M1523.91,169.44c.09-.79,.18-1.58,.28-2.37,.25,.11,.67,.16,.73,.34,.36,1.09-.17,1.67-1.16,1.91,0,0,.15,.11,.15,.11"/><path class="cls-5" d="M1534.94,58.2c.16-.12,.32-.24,.48-.36-.12,.16-.24,.33-.36,.5h-.01s-.02-.03-.02-.03l-.06-.08s-.03-.03-.03-.03"/><path class="cls-5" d="M1561.84,35.88c1.87-.86,3.79-1.65,5.77-2.35-6.22,4.7-12.44,9.4-18.66,14.09,2.12-1.69,13.83-11.04,12.89-11.74"/><path class="cls-5" d="M1568.12,33.35l-.51,.18c.13-.1,.27-.2,.4-.3l.11,.12Z"/><path class="cls-5" d="M1534.58,58.37c-.97,.49-1.95,.96-2.92,1.44-.09-.4-.17-.8-.26-1.2,1.06-.08,2.12-.16,3.18-.24"/><text class="cls-1" transform="translate(650.36 319.03)"><tspan x="0" y="0">RUN </tspan><tspan class="cls-4" x="115.98" y="0">B</tspan><tspan x="147.95" y="0">Y IIM A</tspan><tspan class="cls-3" x="305.13" y="0">L</tspan><tspan x="331.36" y="0">UMNI</tspan></text><g><path class="cls-2" d="M658.43,198.46c-8.63,12.4-17.5,24.63-25.78,37.25-3.96,6.04-5.85,6.74-10.16-.05-8.4-13.23-17.92-25.75-28.76-37.94,0,13.02-.28,26.04,.12,39.05,.18,5.9-1.39,8.1-7.63,7.93-20.06-.53-16.07,2.08-16.19-15.69-.23-32.16-.07-64.32-.07-96.48v-6.08l1.84-.82c4.31,5.64,8.73,11.19,12.91,16.93,12.99,17.81,26.02,35.58,38.71,53.61,3.33,4.74,4.97,4.63,8.26,0,15.77-22.18,31.82-44.16,47.79-66.2,1.03-1.43,2.2-2.76,3.37-4.22,3.74,2.73,1.68,6.02,1.7,8.73,.18,33.69-.07,67.38,.38,101.06,.1,7.3-1.79,9.52-9.12,9.22-17.93-.73-14.66,2.01-15.01-15.24-.21-10.18-.04-20.36-.04-30.54l-2.32-.52Z"/><path class="cls-2" d="M1039.14,212.09c-2.67-3.73-6.52-7.22-7.54-11.38-1.53-6.22,6.85-5.49,8.94-9.7,.26-.53,.79-.92,1.18-1.39,9.15-11.05,12.02-23.51,6.55-36.86-5.96-14.54-17.67-22.81-33.06-24.4-11.52-1.2-23.25-.18-34.87-.65-6.03-.25-7.73,1.65-7.66,7.81,.35,31.22,.16,62.45,.16,93.67,.01,15.51,.03,15.11,15.49,15.57,7.06,.21,8.85-2.02,8.61-8.8-.51-14.18-.15-28.38-.15-42.58,.59-.21,1.19-.42,1.78-.63,8.77,13.02,17.59,26.01,26.3,39.08,8.7,13.06,20.55,16.75,36.22,10.84-7.36-10.24-14.68-20.4-21.95-30.58Zm-27.44-30.01c-14.93-.4-15.16-.67-15.15-16.86,.18-16.07-2.1-13.99,11.09-14.17,11.5-.15,18.44,5.47,18.51,14.51,.05,7.15-8.29,16.69-14.45,16.52Z"/><path class="cls-2" d="M1272.02,194.73c0,13.29-.49,26.61,.18,39.87,.41,8.07-1.87,11.46-10.13,10.05-2.38-.41-4.9-.28-7.32-.04-4.7,.47-6.55-1.28-6.53-6.17,.13-34.87,.09-69.74,0-104.61-.01-3.98,.75-6.2,5.57-6.06,11.92,.35,23.87-.23,35.78,.31,16.34,.75,30.36,11.79,34.94,26.64,4.75,15.38-.5,30.67-14.81,40.82-3.88,2.75-3.8,4.44-1.34,7.79,8.14,11.09,16.1,22.3,24.06,33.53,1.36,1.92,4.14,3.92,3.09,6.21-1.37,2.97-4.88,1.05-7.42,1.51-14.01,2.55-23.23-2.69-30.06-15.52-6.53-12.27-15.39-23.3-23.23-34.88-.93,.18-1.86,.36-2.79,.54m.04-29.75c-.05,17.42-1.27,15.15,8.81,15.31,13.63,.22,20.9-5.03,20.8-14.72-.09-9.62-6.96-13.76-20.14-14.82-13.21-1.06-8.79,7.89-9.47,14.22"/><path class="cls-2" d="M1160.79,186.34c-.01-17.14,.2-34.29-.13-51.43-.11-5.8,2.02-7.27,7.46-7.19,18.36,.25,36.74,.34,55.1-.09,6.54-.15,8.31,2.01,8.21,8.33-.25,14.8,.05,14.82-14.29,14.88-8.27,.03-16.55,.38-24.79-.07-6.19-.34-8.41,2.09-7.71,7.96,.18,1.51,.21,3.08,0,4.58-1.11,7.74,1.44,11.13,9.91,10.27,7.88-.8,15.91,.07,23.86-.22,4.8-.17,6.54,1.6,6.44,6.35-.48,21.5,2.82,16.84-16.29,17.4-2.45,.07-4.9,.01-7.35,.01-18.05,0-17.83-.01-16.62,18.1,.34,5.07,2.45,6.11,6.83,6.05,10.71-.15,21.44,.26,32.14-.14,5.97-.23,7.92,1.58,7.86,7.74-.15,15.68,.16,15.7-15.32,15.72-15.92,.03-31.84-.23-47.76,.15-6.12,.14-7.83-1.84-7.69-7.88,.4-16.83,.14-33.67,.13-50.51"/><path class="cls-2" d="M1073.37,185.35c0-16.82,.26-33.65-.15-50.46-.14-5.79,1.58-7.22,7.2-7.12,18.65,.32,37.32,.26,55.97-.08,6.08-.11,7.8,1.88,7.68,7.91-.3,15.29,0,15.3-15.73,15.28-7.95,0-15.92,.25-23.86-.09-5.57-.24-7.56,1.77-7.4,7.41,.51,18.41-2.2,14.8,14.78,15.19,5.81,.13,11.67,.53,17.42-.05,6.84-.69,8.11,2.18,7.98,8.38-.34,15.4-.04,15.4-15.52,15.41-5.81,0-11.65,.33-17.43-.09-5.82-.43-7.74,2.08-7.14,7.46,.14,1.21,0,2.44,0,3.67q-.05,13.05,12.67,13.06c9.18,0,18.36,.18,27.53-.06,4.49-.12,6.48,1,6.71,6.03,.8,17.32,1,17.34-16.41,17.38-15.29,.04-30.6-.41-45.88,.16-7.23,.28-8.74-2.28-8.57-8.92,.43-16.81,.14-33.65,.14-50.47"/><path class="cls-2" d="M475.3,186.32c0-16.82,.35-33.64-.17-50.44-.21-6.77,2.13-8.35,8.37-8.1,11.3,.44,22.63-.13,33.93,.2,22.06,.65,39.18,16.9,40.03,37.61,.86,21.07-15.4,38.79-37.61,40.98-.61,.06-1.22,.12-1.83,.16q-19.21,1.3-19.23,20.38c0,2.14-.35,4.35,.05,6.41,1.91,9.82-2.7,11.79-11.58,11.28-13.67-.78-11.91,1.24-11.95-12.62-.05-15.29-.01-30.57-.01-45.86m23.25-20.05q.08,17.39,13.68,17.3c13.07-.09,21.17-6.25,21.36-16.27,.21-10.9-8.52-15.74-25.71-16.51-15.23-.67-7.09,10.42-9.33,15.48"/><path class="cls-2" d="M798.12,246.63c-19.8-1.52-38.83-12.65-49.32-34.95-9.96-21.19-8.07-42.76,6.33-61.53,14.93-19.46,35.21-27.83,59.9-23.32,9.86,1.8,18.19,6.87,25.97,13.04,3.12,2.48,3.51,4.62,.77,7.46-.84,.87-1.44,1.97-2.16,2.96q-7.62,10.31-18.42,4.02c-15.63-9.11-33.89-5.39-45.98,9.35-11.32,13.81-10.68,33.74,1.51,47.1,12.74,13.96,30,16.24,45.61,6.38,3.18-2.01,6.71-7.76,9.52-5.34,4.88,4.2,8.07,10.54,11.33,16.35,1.11,1.98-1.96,3.47-3.44,4.88-9.76,9.31-22.24,13.9-41.61,13.6"/><path class="cls-2" d="M1404.43,243.13c-11.43,5.19-23.2,4.04-35.01,1.86-9.55-2.31-17.28-7.36-23.39-15.12-2.93-3.73-2.79-6.38,1.38-8.86,2.62-1.56,5.25-3.24,7.48-5.3,4.12-3.81,7.2-3.9,11.31,.57,7.51,8.16,17.3,8.46,27.2,5.44,9.61-2.93,11.23-10.19,4.25-17.31-3.92-3.99-8.85-6.49-13.7-9.11-5.65-3.05-11.28-6.11-16.97-9.08-12.57-6.57-19.5-16.41-18.07-31.08,1.43-14.7,10.79-22.76,23.68-27.49,15.77-5.79,35.01-1.12,44.79,10.26,4.26,4.95,4.6,8.6-1.58,12.45-6.33,3.94-11.5,9.74-18.86,.83-3.32-4.02-9.54-3.32-14.81-1.98-4.78,1.22-8.6,3.65-9.54,8.74-.96,5.2,2.81,7.8,6.71,9.78,7.63,3.86,15.53,7.19,23.06,11.23,9.56,5.13,18.24,11.43,22.01,22.3,5.96,17.17-1.46,32.6-19.95,41.86"/><path class="cls-2" d="M961.36,244.57c-5.07,0-8.76-.46-12.29,.09-9.35,1.45-16.06-.9-18.47-10.98-1.12-4.7-4.42-5.81-9.01-5.7-11.01,.28-22.04,.26-33.05,0-4.53-.11-8.09,.83-9.04,5.6-1.98,9.95-8.35,12.44-17.44,11.07-3.84-.58-7.86,.79-12.62-1.25,18.35-39.29,36.64-78.45,55.84-119.57,19.14,41.22,37.36,80.43,56.08,120.75m-55.13-65.09c-4.66,2.55-4.94,6.86-6.51,10.26q-9.36,20.24,13.43,18.46c.3-.02,.61-.04,.91-.02,3.86,.24,5.03-1.34,3.35-4.9-3.7-7.86-7.39-15.74-11.18-23.8"/><path class="cls-2" d="M431.3,186.91c0-16.8,.24-33.61-.12-50.4-.15-6.67,1.67-9.06,8.78-8.79,15.22,.58,15.3,.17,15.33,15.53,.06,30.86-.17,61.71,.2,92.56,.08,7.14-1.74,9.52-9.19,9.25-14.9-.56-14.91-.11-14.91-15.07,0-14.36,0-28.72,0-43.08h-.09Z"/></g><polygon class="cls-6" points="1616.55 .8 1622.6 9.02 1632.8 8.7 1626.85 16.99 1630.31 26.59 1620.58 23.49 1612.52 29.75 1612.46 19.54 1604.02 13.81 1613.71 10.6 1616.55 .8"/><polygon class="cls-6" points="1561.57 88.71 1565.41 93.93 1571.89 93.73 1568.11 98.99 1570.3 105.09 1564.13 103.13 1559 107.1 1558.97 100.62 1553.6 96.97 1559.76 94.93 1561.57 88.71"/><polygon class="cls-6" points="1581.21 113.51 1581.06 120 1586.31 123.79 1580.1 125.65 1578.12 131.82 1574.43 126.49 1567.94 126.51 1571.87 121.35 1569.86 115.19 1575.97 117.34 1581.21 113.51"/><path class="cls-6" d="M1618.84,58.89c-.29,3.36-1.05,4.71-6.61,5.55-58.87,3.99-78.82,16.09-89.17,22.72,7.79-7.96,47.34-32.38,90.23-34.88,3.36,.29,5.85,3.25,5.55,6.61Z"/><path class="cls-6" d="M1505.3,41.84c2.07,2.66,2.44,4.17-1.06,8.57-40.39,43.01-46.76,65.45-49.83,77.36,.29-11.13,12.62-55.95,42.33-86.98,2.66-2.07,6.49-1.6,8.57,1.06Z"/><path class="cls-6" d="M1464.22,124.46c8.62-22.92,24.09-42.69,41.09-60.06,5.74-5.82,11.79-11.35,18.26-16.35,12.94-9.97,25.97-19.89,39.77-28.88,11.17-7.34,23.07-13.58,35.53-18.42,3.57-1.43,7.17-.77,10.55,1.55,0,0,.4,1.01,.4,1.01-.62,3.01-1.74,5.11-3.69,6.92-1.55,1.4-3.49,1.92-5.31,2.81-3.59,1.73-7.24,3.31-10.86,4.96-7.22,3.34-14.56,6.46-21.77,9.89-14.46,6.72-28.69,14.57-41.12,24.61-6.05,4.8-12.7,10.2-18.47,15.36-17.7,16.2-34.15,34.7-44.37,56.61h0Z"/><path class="cls-6" d="M1468.82,127.77c14.98-24.74,39.66-47.4,64.42-62.24,7.27-4.23,14.92-8.42,22.32-12.45,1.61-.82,5.94-3.06,7.6-3.92,1.68-.81,6.09-2.95,7.72-3.74,12.12-5.64,24.84-10.07,38.01-12.47,3.61-.69,6.77,.76,9.42,3.64,0,0,.2,1.07,.2,1.07-1.05,2.77-2.35,4.59-4.46,6-1.65,1.08-3.5,1.12-5.25,1.69-2.65,.72-5.31,1.38-7.97,2.01-8.84,2.33-17.78,4.49-26.57,6.99-6,1.81-12.51,3.9-18.3,6.26-8.56,3.3-16.78,7.83-24.6,12.63-23.78,14.24-46.14,31.95-62.53,54.52h0Z"/><path class="cls-6" d="M1464.22,127.62c13.23-22.43,30.45-42.61,49.62-60.25,16.8-15.19,36.15-27.32,56.36-37.63,6.87-3.33,14.06-6.06,21.52-7.77,4.2-1.33,8.58-1.32,12.15,1.92,0,0,.3,1.37,.3,1.37-1.42,3.28-3.6,5.56-6.83,6.53-2.48,.91-5.14,1.83-7.63,2.63-11.84,4.22-23.97,8.07-35.09,14.03-35.12,19.69-65.91,47.19-90.4,79.16h0Z"/></g></g></svg>